# xmcd
#
# Track frame offsets:
#	150
#	11557
#	31874
#	50510
#	66657
#	93306
#	115851
#	133925
#	152584
#	173574
#	197681
#	217879
#	238720
#
# Disc length: 3459 seconds
#
# Revision: 0
# Processed by: cddbd v1.4PL0 Copyright (c) Steve Scherf et al.
# Submitted via: dBpowerAMP V4.0
#
DISCID=ad0d810d
DTITLE=Lone Justice - Bayou -- Live at the Bayou
DYEAR=1900
DGENRE=Country
TTITLE0=Am I The Only One
TTITLE1=Over Me
TTITLE2=To Miss Someone
TTITLE3=I've Forgotten What It Was In You
TTITLE4=Panic Beach
TTITLE5=Wheels
TTITLE6=Shelter
TTITLE7=Breathe
TTITLE8=Drinkin' In My Sunday Dress
TTITLE9=This Property Is Condemned
TTITLE10=Into The Mystic
TTITLE11=Nobody's Child
TTITLE12=More Than A Heart Can Hold
EXTD=
EXTT0=
EXTT1=
EXTT2=
EXTT3=
EXTT4=
EXTT5=
EXTT6=
EXTT7=
EXTT8=
EXTT9=
EXTT10=
EXTT11=
EXTT12=
PLAYORDER=
